<?xml version="1.0" standalone="no"?>
<!DOCTYPE svg PUBLIC "-//W3C//DTD SVG 20010904//EN"
 "http://www.w3.org/TR/2001/REC-SVG-20010904/DTD/svg10.dtd">
<svg version="1.0" xmlns="http://www.w3.org/2000/svg"
 width="173.000000pt" height="173.000000pt" viewBox="0 0 173.000000 173.000000"
 preserveAspectRatio="xMidYMid meet">
<metadata>
Created by potrace 1.14, written by Peter Selinger 2001-2017
</metadata>
<g transform="translate(0.000000,173.000000) scale(0.100000,-0.100000)"
fill="#000000" stroke="none">
<path d="M820 1679 c-31 -73 -57 -159 -70 -231 -13 -67 -15 -212 -5 -268 3
-19 8 -48 11 -64 19 -113 90 -234 164 -281 44 -28 167 -71 229 -80 154 -23
344 3 496 66 l76 32 -46 29 c-126 78 -337 117 -516 94 -53 -6 -187 -40 -196
-49 -8 -8 70 -39 130 -52 35 -7 107 -11 165 -10 95 3 128 -4 101 -20 -19 -12
-232 -9 -289 5 -176 41 -241 146 -240 384 0 116 3 143 16 136 5 -3 9 -52 10
-110 0 -127 9 -187 36 -248 l20 -47 19 55 c67 193 49 451 -45 638 -20 40 -38
72 -40 72 -2 0 -13 -23 -26 -51z"/>
<path d="M379 1343 c-200 -202 -355 -363 -344 -359 222 89 484 95 662 16 48
-21 50 -19 27 35 -34 82 -52 202 -49 318 2 62 6 126 9 142 11 49 36 137 51
178 8 20 14 37 12 37 -2 0 -167 -165 -368 -367z"/>
<path d="M960 1687 c0 -2 7 -18 15 -34 71 -143 80 -417 19 -607 -8 -26 -13
-51 -10 -53 3 -3 18 -1 33 5 15 6 48 16 73 23 25 6 54 13 65 16 11 3 73 7 137
8 126 3 234 -14 338 -55 54 -21 47 -13 -305 339 -198 199 -361 361 -362 361
-2 0 -3 -2 -3 -3z"/>
<path d="M250 971 c-47 -10 -123 -33 -168 -51 l-84 -34 24 -18 c12 -10 55 -31
93 -47 194 -82 437 -87 624 -14 22 9 21 11 -25 30 -64 27 -136 37 -261 34 -61
-1 -103 3 -103 8 0 32 263 26 352 -8 127 -49 177 -139 185 -337 6 -123 1 -174
-17 -174 -6 0 -9 34 -7 85 4 113 -9 217 -35 277 l-21 50 -13 -32 c-22 -52 -45
-181 -48 -265 -4 -147 35 -311 101 -424 l26 -44 13 26 c21 38 73 200 82 249 4
24 7 101 7 173 -2 301 -97 447 -335 511 -95 25 -282 27 -390 5z"/>
<path d="M395 412 c192 -193 350 -350 352 -349 1 2 -6 26 -17 54 -36 96 -49
182 -45 318 2 123 10 166 51 294 6 21 5 23 -11 17 -99 -37 -185 -51 -330 -50
-149 1 -202 10 -330 59 -11 4 137 -150 330 -343z"/>
<path d="M975 742 c34 -79 47 -124 59 -198 12 -79 13 -227 2 -284 -18 -84 -41
-169 -53 -192 -7 -16 -10 -28 -6 -28 5 0 170 162 368 361 198 199 351 357 340
351 -27 -13 -161 -50 -216 -60 -24 -4 -98 -6 -164 -6 -121 2 -237 24 -307 59
-28 13 -29 13 -23 -3z"/>
</g>
</svg>
