<svg xmlns="http://www.w3.org/2000/svg" width="18" height="18" viewBox="0 0 18 18">
  <defs>
    <style>
      .cls-1 {
        fill: #fff;
      }

      .cls-2 {
        fill: none;
        opacity: 0;
      }
    </style>
  </defs>
  <g id="vuesax_linear_arrow-down" data-name="vuesax/linear/arrow-down" transform="translate(-252 126) rotate(-90)">
    <g id="arrow-down" transform="translate(108 252)">
      <path id="Vector" class="cls-1" d="M4.553,5.3a.748.748,0,0,1-.53-.22L-.53.53A.75.75,0,0,1-.53-.53.75.75,0,0,1,.53-.53L4.553,3.492,8.575-.53a.75.75,0,0,1,1.061,0,.75.75,0,0,1,0,1.061L5.083,5.083A.748.748,0,0,1,4.553,5.3Z" transform="translate(4.448 10.822)"/>
      <path id="Vector-2" data-name="Vector" class="cls-1" d="M0,13.373a.75.75,0,0,1-.75-.75V0A.75.75,0,0,1,0-.75.75.75,0,0,1,.75,0V12.623A.75.75,0,0,1,0,13.373Z" transform="translate(9 2.625)"/>
      <path id="Vector-3" data-name="Vector" class="cls-2" d="M0,0H18V18H0Z" transform="translate(18 18) rotate(180)"/>
    </g>
  </g>
</svg>
