<svg xmlns="http://www.w3.org/2000/svg" width="18.473" height="12.934" viewBox="0 0 18.473 12.934">
  <defs>
    <style>
      .cls-1 {
        fill: #452d1e;
      }
    </style>
  </defs>
  <path id="_008-youtube" data-name="008-youtube" class="cls-1" d="M18.093-4.058a2.314,2.314,0,0,0-1.628-1.628,54.071,54.071,0,0,0-7.228-.4A56.177,56.177,0,0,0,2.009-5.7,2.361,2.361,0,0,0,.381-4.058,24.385,24.385,0,0,0,0,.385a24.3,24.3,0,0,0,.38,4.443A2.315,2.315,0,0,0,2.009,6.456a54.169,54.169,0,0,0,7.228.4,56.177,56.177,0,0,0,7.228-.381,2.314,2.314,0,0,0,1.628-1.628A24.393,24.393,0,0,0,18.473.4a23.148,23.148,0,0,0-.381-4.458ZM7.4,3.154V-2.384L12.2.385Zm0,0" transform="translate(-0.001 6.082)"/>
</svg>
