<svg xmlns="http://www.w3.org/2000/svg" width="18.471" height="18.474" viewBox="0 0 18.471 18.474">
  <defs>
    <style>
      .cls-1 {
        fill: #452d1e;
      }
    </style>
  </defs>
  <g id="_011-instagram" data-name="011-instagram" transform="translate(0)">
    <path id="Path_6" data-name="Path 6" class="cls-1" d="M18.872,5.432a6.751,6.751,0,0,0-.429-2.241,4.732,4.732,0,0,0-2.7-2.7A6.768,6.768,0,0,0,13.5.058C12.51.011,12.2,0,9.688,0S6.865.011,5.88.054A6.752,6.752,0,0,0,3.639.484,4.508,4.508,0,0,0,2,1.552,4.548,4.548,0,0,0,.936,3.187,6.769,6.769,0,0,0,.506,5.428c-.047.989-.058,1.3-.058,3.811S.459,12.061.5,13.046a6.75,6.75,0,0,0,.43,2.241,4.732,4.732,0,0,0,2.7,2.7,6.769,6.769,0,0,0,2.241.429c.985.043,1.3.054,3.807.054s2.822-.011,3.807-.054a6.749,6.749,0,0,0,2.241-.429,4.725,4.725,0,0,0,2.7-2.7,6.773,6.773,0,0,0,.429-2.241c.043-.985.054-1.3.054-3.807s0-2.822-.047-3.807Zm-1.664,7.543a5.064,5.064,0,0,1-.318,1.714,3.065,3.065,0,0,1-1.754,1.754,5.082,5.082,0,0,1-1.714.317c-.974.043-1.267.054-3.732.054S6.93,16.8,5.959,16.76a5.061,5.061,0,0,1-1.714-.317,2.843,2.843,0,0,1-1.061-.689,2.872,2.872,0,0,1-.689-1.061,5.082,5.082,0,0,1-.317-1.714c-.043-.974-.054-1.267-.054-3.732s.011-2.761.054-3.732A5.061,5.061,0,0,1,2.495,3.8a2.808,2.808,0,0,1,.693-1.061A2.868,2.868,0,0,1,4.249,2.05a5.085,5.085,0,0,1,1.714-.318c.974-.043,1.267-.054,3.732-.054s2.761.011,3.732.054a5.064,5.064,0,0,1,1.714.318,2.841,2.841,0,0,1,1.061.689A2.872,2.872,0,0,1,16.891,3.8a5.084,5.084,0,0,1,.318,1.714c.043.974.054,1.267.054,3.732s-.011,2.754-.054,3.728Zm0,0" transform="translate(-0.448 0)"/>
    <path id="Path_7" data-name="Path 7" class="cls-1" d="M129.695,124.5a4.746,4.746,0,1,0,4.746,4.746A4.747,4.747,0,0,0,129.695,124.5Zm0,7.824a3.078,3.078,0,1,1,3.078-3.078A3.079,3.079,0,0,1,129.695,132.324Zm0,0" transform="translate(-120.455 -120.007)"/>
    <path id="Path_8" data-name="Path 8" class="cls-1" d="M364.666,89.71a1.108,1.108,0,1,1-1.108-1.108A1.108,1.108,0,0,1,364.666,89.71Zm0,0" transform="translate(-349.385 -85.404)"/>
  </g>
</svg>
