<svg xmlns="http://www.w3.org/2000/svg" width="18.473" height="15.013" viewBox="0 0 18.473 15.013">
  <defs>
    <style>
      .cls-1 {
        fill: #452d1e;
      }
    </style>
  </defs>
  <path id="_013-twitter" data-name="013-twitter" class="cls-1" d="M5.891,11.189A10.71,10.71,0,0,0,16.675.405q0-.246-.011-.49a7.713,7.713,0,0,0,1.891-1.963,7.562,7.562,0,0,1-2.176.6,3.8,3.8,0,0,0,1.667-2.1,7.6,7.6,0,0,1-2.407.92,3.786,3.786,0,0,0-2.767-1.2A3.791,3.791,0,0,0,9.081-.035a3.786,3.786,0,0,0,.1.864A10.761,10.761,0,0,1,1.367-3.13a3.781,3.781,0,0,0-.513,1.9A3.787,3.787,0,0,0,2.541,1.929,3.76,3.76,0,0,1,.824,1.456c0,.016,0,.031,0,.048A3.791,3.791,0,0,0,3.864,5.219a3.8,3.8,0,0,1-1,.133,3.767,3.767,0,0,1-.712-.068A3.794,3.794,0,0,0,5.693,7.917,7.6,7.6,0,0,1,.986,9.539a7.713,7.713,0,0,1-.9-.053,10.728,10.728,0,0,0,5.81,1.7" transform="translate(-0.082 3.824)"/>
</svg>
