<svg id="facebook-logo_icon-icons.com_73574" xmlns="http://www.w3.org/2000/svg" width="8.609" height="18.473" viewBox="0 0 8.609 18.473">
  <defs>
    <style>
      .cls-1 {
        fill: #452d1e;
      }
    </style>
  </defs>
  <path id="Path_1424" data-name="Path 1424" class="cls-1" d="M131.347,6.053V4.461a3.506,3.506,0,0,1,.033-.555,1.077,1.077,0,0,1,.152-.387.618.618,0,0,1,.381-.263,2.713,2.713,0,0,1,.7-.073h1.592V0h-2.544a4.142,4.142,0,0,0-3.172,1.048,4.415,4.415,0,0,0-.964,3.088V6.053h-1.906V9.236h1.906v9.236h3.823V9.236h2.544l.336-3.184Z" transform="translate(-125.619)"/>
</svg>
