<svg xmlns="http://www.w3.org/2000/svg" xmlns:xlink="http://www.w3.org/1999/xlink" width="43.014" height="43.014" viewBox="0 0 43.014 43.014">
  <defs>
    <style>
      .cls-1 {
        fill: none;
      }

      .cls-2 {
        clip-path: url(#clip-path);
      }

      .cls-3 {
        fill: url(#linear-gradient);
      }

      .cls-4 {
        clip-path: url(#clip-path-2);
      }

      .cls-5 {
        fill: url(#linear-gradient-2);
      }

      .cls-6 {
        clip-path: url(#clip-path-3);
      }

      .cls-7 {
        fill: url(#radial-gradient);
      }

      .cls-8 {
        clip-path: url(#clip-path-4);
      }

      .cls-9 {
        fill: url(#radial-gradient-2);
      }

      .cls-10 {
        clip-path: url(#clip-path-5);
      }

      .cls-11 {
        fill: url(#radial-gradient-3);
      }

      .cls-12 {
        clip-path: url(#clip-path-6);
      }

      .cls-13 {
        fill: url(#radial-gradient-4);
      }
    </style>
    <clipPath id="clip-path">
      <path id="Path_13" data-name="Path 13" class="cls-1" d="M3.514,103.838l.2.2A21.033,21.033,0,0,0,22.505,105.6c-.872-.651-3.5-2.005-9.8-1.363a.337.337,0,1,1-.069-.67c8.57-.874,10.686,1.835,10.772,1.951a.33.33,0,0,1,.057.219.33.33,0,0,1,.219.057c.116.086,2.825,2.2,1.951,10.771a.337.337,0,1,1-.67-.068c.643-6.3-.712-8.931-1.362-9.8a21.032,21.032,0,0,0,1.568,18.792l.2.2c4.1-8.2,2.616-14.921,1.337-18.235A8.6,8.6,0,0,0,21.75,102.5a20.691,20.691,0,0,0-7.416-1.35,24,24,0,0,0-10.82,2.687" transform="translate(-3.514 -101.151)"/>
    </clipPath>
    <linearGradient id="linear-gradient" x1="0.115" y1="1.732" x2="0.12" y2="1.732" gradientUnits="objectBoundingBox">
      <stop offset="0" stop-color="#eec880"/>
      <stop offset="0.006" stop-color="#eec880"/>
      <stop offset="0.185" stop-color="#e5c080"/>
      <stop offset="0.596" stop-color="#c48411"/>
      <stop offset="0.814" stop-color="#e4b76d"/>
      <stop offset="0.871" stop-color="#edc686"/>
      <stop offset="1" stop-color="#f1e4ce"/>
    </linearGradient>
    <clipPath id="clip-path-2">
      <path id="Path_14" data-name="Path 14" class="cls-1" d="M107.02.069c-4.126,8.218-2.634,14.951-1.353,18.271a8.6,8.6,0,0,0,4.953,4.954c3.319,1.28,10.052,2.772,18.27-1.353l.02-.019a20.994,20.994,0,0,0-19.045-1.731c.872.651,3.5,2.005,9.8,1.362a.337.337,0,0,1,.069.67c-8.569.874-10.686-1.835-10.771-1.951a.331.331,0,0,1-.057-.219.33.33,0,0,1-.219-.057c-.116-.086-2.825-2.2-1.951-10.772a.337.337,0,1,1,.67.069c-.643,6.3.712,8.931,1.363,9.8A20.993,20.993,0,0,0,107.039.05Z" transform="translate(-104.316 -0.05)"/>
    </clipPath>
    <linearGradient id="linear-gradient-2" x1="-0.338" y1="2.186" x2="-0.333" y2="2.186" xlink:href="#linear-gradient"/>
    <clipPath id="clip-path-3">
      <path id="Path_15" data-name="Path 15" class="cls-1" d="M134.383,21.722a22.027,22.027,0,0,1,18.011.514L133.869,3.711a22.027,22.027,0,0,1,.514,18.011" transform="translate(-133.869 -3.711)"/>
    </clipPath>
    <radialGradient id="radial-gradient" cx="-0.069" cy="0.546" r="1.674" gradientTransform="matrix(1, 0, 0, -1, 0, 5.96)" xlink:href="#linear-gradient"/>
    <clipPath id="clip-path-4">
      <path id="Path_16" data-name="Path 16" class="cls-1" d="M5.433,20.7a22.611,22.611,0,0,1,17.153-.622,9.338,9.338,0,0,1,1.3.634,9.317,9.317,0,0,1-.634-1.3,22.609,22.609,0,0,1,.622-17.153Z" transform="translate(-5.433 -2.265)"/>
    </clipPath>
    <radialGradient id="radial-gradient-2" cx="0.463" cy="1.1" r="1.325" gradientTransform="matrix(1, 0, 0, -1, 0, 6.017)" xlink:href="#linear-gradient"/>
    <clipPath id="clip-path-5">
      <path id="Path_17" data-name="Path 17" class="cls-1" d="M26.529,149.53a22.029,22.029,0,0,1-.383-17.73,22.027,22.027,0,0,1-17.73-.383Z" transform="translate(-8.416 -131.417)"/>
    </clipPath>
    <radialGradient id="radial-gradient-3" cx="1.088" cy="0.44" r="1.712" gradientTransform="matrix(1, 0, 0, -1, 0, 4.259)" xlink:href="#linear-gradient"/>
    <clipPath id="clip-path-6">
      <path id="Path_18" data-name="Path 18" class="cls-1" d="M136.346,133.842a22.608,22.608,0,0,1-.622,17.153l11.152-11.152,7.287-7.287a22.608,22.608,0,0,1-17.152.621,9.309,9.309,0,0,1-1.3-.634,9.326,9.326,0,0,1,.634,1.3" transform="translate(-135.712 -132.543)"/>
    </clipPath>
    <radialGradient id="radial-gradient-4" cx="0.604" cy="-0.085" r="1.325" gradientTransform="matrix(1, 0, 0, -1, 0, 4.18)" xlink:href="#linear-gradient"/>
  </defs>
  <g id="Group_47" data-name="Group 47" transform="translate(-0.642 -0.05)">
    <g id="Group_30" data-name="Group 30" transform="translate(0.642 18.525)">
      <g id="Group_29" data-name="Group 29" class="cls-2">
        <rect id="Rectangle_17" data-name="Rectangle 17" class="cls-3" width="35.385" height="35.602" transform="translate(-11.98 14.921) rotate(-51.24)"/>
      </g>
    </g>
    <g id="Group_32" data-name="Group 32" transform="translate(19.062 0.05)">
      <g id="Group_31" data-name="Group 31" class="cls-4" transform="translate(0 0)">
        <rect id="Rectangle_18" data-name="Rectangle 18" class="cls-5" width="36.573" height="36.573" transform="matrix(0.626, -0.78, 0.78, 0.626, -14.121, 15.818)"/>
      </g>
    </g>
    <g id="Group_34" data-name="Group 34" transform="translate(24.463 0.719)">
      <g id="Group_33" data-name="Group 33" class="cls-6">
        <rect id="Rectangle_19" data-name="Rectangle 19" class="cls-7" width="26.087" height="26.087" transform="translate(-9.106 7.571) rotate(-39.739)"/>
      </g>
    </g>
    <g id="Group_36" data-name="Group 36" transform="translate(0.993 0.455)">
      <g id="Group_35" data-name="Group 35" class="cls-8">
        <rect id="Rectangle_20" data-name="Rectangle 20" class="cls-9" width="25.911" height="25.911" transform="translate(-8.967 11.396) rotate(-51.801)"/>
      </g>
    </g>
    <g id="Group_38" data-name="Group 38" transform="translate(1.538 24.056)">
      <g id="Group_37" data-name="Group 37" class="cls-10">
        <rect id="Rectangle_21" data-name="Rectangle 21" class="cls-11" width="25.507" height="25.507" transform="translate(-8.904 7.403) rotate(-39.739)"/>
      </g>
    </g>
    <g id="Group_40" data-name="Group 40" transform="translate(24.8 24.262)">
      <g id="Group_39" data-name="Group 39" class="cls-12">
        <rect id="Rectangle_22" data-name="Rectangle 22" class="cls-13" width="25.91" height="25.91" transform="translate(-8.967 11.395) rotate(-51.801)"/>
      </g>
    </g>
  </g>
</svg>
